<svg width="7" height="7" viewBox="0 0 7 7" fill="none" xmlns="http://www.w3.org/2000/svg">
<path d="M2.78806 0.517056C3.01215 -0.172613 3.98785 -0.172612 4.21193 0.517058L4.52499 1.48055C4.62521 1.78898 4.91263 1.9978 5.23693 1.9978H6.25C6.97517 1.9978 7.27667 2.92575 6.69 3.35198L5.87041 3.94746C5.60804 4.13808 5.49826 4.47596 5.59847 4.78439L5.91153 5.74788C6.13562 6.43755 5.34626 7.01105 4.75959 6.58481L3.94 5.98934C3.67763 5.79872 3.32236 5.79872 3.06 5.98934L2.2404 6.58481C1.65373 7.01105 0.864379 6.43755 1.08847 5.74788L1.40152 4.78439C1.50174 4.47596 1.39195 4.13807 1.12959 3.94745L0.309992 3.35198C-0.276676 2.92574 0.0248324 1.9978 0.749994 1.9978H1.76307C2.08737 1.9978 2.37479 1.78898 2.475 1.48055L2.78806 0.517056Z" fill="#FF9228"/>
</svg>
